<?xml version="1.0" encoding="utf-8"?>
<!-- Generator: Adobe Adobe Illustrator 29.2.0, SVG Export Plug-In . SVG Version: 6.00 Build 0)  -->
<svg version="1.1" id="Layer_1" xmlns="http://www.w3.org/2000/svg" xmlns:xlink="http://www.w3.org/1999/xlink" x="0px" y="0px"
	 width="800px" height="800px" viewBox="0 0 800 800" style="enable-background:new 0 0 800 800;" xml:space="preserve">
<style type="text/css">
	.st0{fill:#DAE3E8;stroke:#000000;stroke-width:4;stroke-miterlimit:10;}
</style>
<path class="st0" d="M562.19,401.34c0,30.37-33.36,55-74.5,55c-13.35,0-25.88-2.59-36.72-7.14c-19.02,23.95-56.55,40.25-99.73,40.25
	c-62.41,0-113-34.03-113-76c0-41.98,50.59-76,113-76c5,0,9.92,0.22,14.74,0.64c10.55-17.6,29.12-29.28,50.27-29.28
	c24.8,0,46.05,16.05,54.98,38.88c5.3-0.89,10.8-1.35,16.46-1.35C528.83,346.34,562.19,370.96,562.19,401.34z"/>
</svg>
